<?xml version="1.0" encoding="utf-8"?>
<!-- Generator: Adobe Illustrator 27.4.1, SVG Export Plug-In . SVG Version: 6.00 Build 0)  -->
<svg version="1.1" id="Layer_1" xmlns="http://www.w3.org/2000/svg" xmlns:xlink="http://www.w3.org/1999/xlink" x="0px" y="0px"
	 viewBox="0 0 3000 3000" style="enable-background:new 0 0 3000 3000;" xml:space="preserve">
<style type="text/css">
	.st0{fill:#FFFFFF;}
	.st1{fill:#F94400;}
</style>
<g>
	<g>
		<path class="st0" d="M636.04,1891.1c-19.04,5.03-40.2,8.48-63.44,10.39c-23.27,1.89-46.18,0.3-68.72-4.77
			c-22.56-5.08-42.6-15.06-60.09-29.95c-17.5-14.91-30.14-37.03-37.88-66.36c-5.45-20.64-6.92-45.48-4.41-74.56
			c2.5-29.08,10.1-59.72,22.82-91.93c25.15,21.36,54.18,34.91,87.09,40.64c32.9,5.75,65.22,4.42,96.96-3.96
			c36.48-9.63,68.33-28,95.54-55.13c27.21-27.11,42.51-61.5,45.96-103.13c-23.13,12.05-41.51,21.14-55.16,27.29
			c-13.65,6.15-29.6,11.63-47.84,16.45c-38.87,10.26-71.85,9.86-98.96-1.24c-27.11-11.08-47.81-37.21-62.07-78.43
			c-12.43-37.45-25.31-78.15-38.62-122.17c-13.32-43.99-28.24-88.42-44.73-133.28c-16.51-44.84-35.58-87.33-57.19-127.45
			c-21.63-40.11-46.5-74.9-74.65-104.38c-28.15-29.48-60.92-50.74-98.29-63.78c26.69-27.41,50.93-48.87,72.73-64.38
			c21.78-15.49,46.16-26.82,73.13-33.94c43.61-11.51,82.57-10.98,116.88,1.6c34.29,12.58,64.87,33.59,91.72,62.97
			c26.85,29.4,50.49,64.31,70.92,104.73c20.42,40.43,38.69,83.13,54.81,128.07c16.11,44.97,30.52,89.11,43.23,132.41
			c12.71,43.32,24.55,82.61,35.58,117.88l16.66-4.4c5.28-37.86,9.58-80.16,12.96-126.88c3.36-46.71,5.08-94.03,5.15-142
			c0.07-47.94-1.53-93.34-4.77-136.2c-3.25-42.83-8.75-78.93-16.5-108.28c-4.6-17.44-10.31-31.84-17.13-43.2
			c-6.81-11.35-13.86-21.16-21.13-29.42c49.65-52.98,99.85-86.18,150.62-99.58c43.61-11.51,78.55-6.94,104.8,13.7
			c26.24,20.66,44.7,51.2,55.38,91.65c6.28,23.8,10.06,57.38,11.32,100.74c1.27,43.37,0.38,93.03-2.67,148.98
			c-3.04,55.97-8.2,114.39-15.46,175.26c-7.27,60.9-15.98,120.26-26.17,178.09c-17.47,94.56-39.39,175.44-65.76,242.64
			c-26.39,67.2-61.84,121.74-106.35,163.62C767.75,1841.26,709.01,1871.84,636.04,1891.1z"/>
	</g>
	<g>
		<path class="st0" d="M1527.03,1685.87c-24.3,0-45.55-7.21-63.78-21.64c-18.22-14.43-27.33-37.58-27.33-69.47c0-3.04,0-6.19,0-9.49
			c0-3.29,0.25-6.7,0.76-10.25l-7.59-2.28c-50.11,74.91-117.43,112.36-201.95,112.36c-42.52,0-73.52-11.39-93-34.17
			c-19.49-22.78-29.23-54.4-29.23-94.9c0-19.23,2.4-45.42,7.21-78.58c4.8-33.14,10.63-69.47,17.46-108.95
			c6.83-39.48,13.54-78.45,20.12-116.92l-40.24-81.24c27.83-16.19,54.02-29.35,78.58-39.48c24.54-10.12,50.49-15.18,77.82-15.18
			c23.78,0,39.48,6.83,47.07,20.5c7.59,13.67,11.39,30.37,11.39,50.11c0,6.58-1.27,17.84-3.8,33.79
			c-2.54,15.94-5.7,34.81-9.49,56.56c-3.8,21.77-7.85,44.41-12.15,67.95c-4.31,23.53-8.35,46.31-12.15,68.33
			c-3.8,22.02-6.96,41.38-9.49,58.08c-2.54,16.7-3.8,28.85-3.8,36.44c0,18.73,3.16,33.41,9.49,44.04
			c6.32,10.63,16.82,15.94,31.51,15.94c12.15,0,26.19-5.31,42.14-15.94c15.94-10.63,32-26.69,48.21-48.21
			c16.19-21.51,30.11-48.46,41.76-80.86c-10.63-31.38-15.94-63.26-15.94-95.66c0-36.94,6.19-71.37,18.6-103.25
			c12.4-31.89,31-57.82,55.8-77.82c24.79-19.99,55.67-29.99,92.62-29.99c11.64,0,23.66,1.02,36.06,3.04
			c12.4,2.03,23.92,5.82,34.55,11.39c-4.56,27.33-9.87,57.45-15.94,90.35c-6.07,32.91-12.28,66.18-18.6,99.84
			c-6.33,33.67-12.15,65.67-17.46,96.04c-5.31,30.37-9.62,56.56-12.91,78.58c-3.3,22.02-4.93,37.58-4.93,46.69
			c0,25.81,1.9,47.58,5.69,65.29c3.8,17.72,9.49,32.65,17.09,44.79C1590.8,1674.48,1559.41,1685.87,1527.03,1685.87z"/>
	</g>
	<g>
		<path class="st0" d="M1792.72,1685.87c-33.92,0-57.83-9.75-71.75-29.23c-13.93-19.48-20.88-48.97-20.88-88.45
			c0-25.3,4.18-63.39,12.53-114.26c8.35-50.87,20.12-118.31,35.31-202.33l-40.24-81.24c23.78-15.18,49.09-28.21,75.92-39.1
			c26.82-10.88,53.64-16.32,80.48-16.32c24.29,0,45.67,3.68,64.15,11.01c18.47,7.34,34.54,21.26,48.21,41.76
			c13.67,20.5,25.17,50.37,34.54,89.59c9.36,39.23,17.08,90.73,23.16,154.5h9.11c12.15-34.92,27.33-69.85,45.55-104.77
			c18.22-34.92,39.98-66.81,65.29-95.66c25.3-28.85,54.78-52.01,88.45-69.47c33.65-17.46,71.99-26.19,115.02-26.19
			c23.78,0,39.48,6.96,47.07,20.88c7.59,13.93,11.39,30.5,11.39,49.73c0,8.1-1.4,21.14-4.18,39.1
			c-2.79,17.97-6.45,38.72-11.01,62.26c-4.56,23.54-9.24,48.09-14.05,73.64c-4.82,25.56-9.49,50.37-14.04,74.4
			c-4.56,24.05-8.23,45.3-11.01,63.77c-2.79,18.48-4.17,32.53-4.17,42.14c0,25.81,1.9,47.58,5.69,65.29
			c3.8,17.72,9.49,32.65,17.08,44.79c-30.37,22.78-61.76,34.16-94.14,34.16c-33.92,0-57.83-9.75-71.75-29.23
			c-13.93-19.48-20.88-48.97-20.88-88.45c0-21.76,3.15-52.88,9.49-93.38c6.32-40.49,15.05-92.62,26.19-156.4h-12.15
			c-21.77,28.85-40.75,61.12-56.94,96.8c-16.2,35.68-28.98,71.12-38.34,106.29c-9.37,35.19-15.56,66.43-18.6,93.76
			c-12.66,11.65-26.45,20.38-41.38,26.19c-14.93,5.82-29.74,8.73-44.41,8.73c-12.15,0-23.54-4.67-34.17-14.05
			c-10.63-9.36-20.5-25.93-29.61-49.73c-9.11-23.78-17.08-57.32-23.92-100.6c-6.83-43.28-12.28-99.08-16.32-167.41h-12.15
			c-6.58,28.85-12.66,58.34-18.22,88.45c-5.57,30.12-10.13,57.32-13.67,81.62c-3.55,24.29-5.31,42.02-5.31,53.15
			c0,25.81,1.9,47.58,5.69,65.29c3.8,17.72,9.49,32.65,17.08,44.79C1856.5,1674.48,1825.11,1685.87,1792.72,1685.87z"/>
	</g>
	<g>
		<path class="st1" d="M1735.61,2321.47c-144.53,0-285.52-42-407.72-121.47c-118.13-76.81-214.5-185.58-278.69-314.53
			c-20.05-40.28-3.65-89.19,36.63-109.25c40.28-20.06,89.19-3.66,109.25,36.63c106.15,213.22,313.27,345.67,540.54,345.67
			c227.27,0,434.39-132.45,540.54-345.67c20.06-40.28,68.97-56.68,109.25-36.63c40.28,20.05,56.68,68.96,36.63,109.25
			c-64.2,128.96-160.57,237.72-278.69,314.53C2021.13,2279.46,1880.14,2321.47,1735.61,2321.47z"/>
	</g>
	<g>
		<g>
			<path class="st1" d="M2507.29,1586.67l12.86-166.42c3.48-45.06,42.83-78.76,87.89-75.28c45.06,3.48,78.76,42.83,75.28,87.89
				c-1.42,18.34-8.8,34.82-20.07,47.66l-110.08,125.47c-9.56,10.89-26.13,11.98-37.03,2.42
				C2509.73,1602.79,2506.73,1594.58,2507.29,1586.67z"/>
		</g>
		<g>
			<path class="st1" d="M2559.95,1683.29l151.23-70.64c40.95-19.13,89.64-1.44,108.77,39.51c19.13,40.95,1.44,89.64-39.51,108.77
				c-16.67,7.79-34.65,9.46-51.37,5.96l-163.38-34.14c-14.18-2.96-23.28-16.87-20.32-31.05
				C2547.12,1693.34,2552.79,1686.69,2559.95,1683.29z"/>
		</g>
		<g>
			<path class="st1" d="M2588.57,1822.2l159.19,50.17c43.1,13.58,67.03,59.54,53.45,102.64c-13.58,43.1-59.54,67.03-102.64,53.45
				c-17.55-5.53-31.93-16.45-41.88-30.33l-97.32-135.6c-8.45-11.77-5.75-28.16,6.02-36.61
				C2572.32,1820.93,2581,1819.86,2588.57,1822.2z"/>
		</g>
	</g>
</g>
</svg>
